<?xml version="1.0" encoding="utf-8"?>
<!-- Generator: Adobe Illustrator 19.1.0, SVG Export Plug-In . SVG Version: 6.00 Build 0)  -->
<svg version="1.1" id="Шар_1" xmlns="http://www.w3.org/2000/svg" xmlns:xlink="http://www.w3.org/1999/xlink" x="0px" y="0px"
	 viewBox="0 0 150 150" style="enable-background:new 0 0 150 150;" xml:space="preserve">
<style type="text/css">
	.st0{fill:none;stroke:#171B65;stroke-width:5;stroke-linecap:round;stroke-linejoin:round;stroke-miterlimit:10;}
	.st1{fill:#00B5DA;stroke:#171B65;stroke-width:3;stroke-linecap:round;stroke-linejoin:round;stroke-miterlimit:10;}
</style>
<g>
	<path class="st0" d="M75.2,27.9c4.9,0,8.6-4.7,8.6-12.5c0.1-5.4-2.5-8.7-8.6-8.7c-6.2,0-8.7,3.2-8.6,8.7
		C66.6,23.2,70.3,27.9,75.2,27.9L75.2,27.9z M75.2,27.9"/>
	<path class="st0" d="M87.2,66.8c0.9,2.4,5.5,2.9,6.8,1.2c1.2-1.7,5.2-13.5,3.7-18.1c-1.5-4.6-8.3-11.6-10-13
		c-1.7-1.4-5.8-2.3-5.8-2.3"/>
	<path class="st0" d="M68.5,34.6c0,0-1.2,0.3-3.3,1.4c-0.7,0.4-7.4-5.3-7.4-5.3s5.3-9.7,6-10.9c0.8-1.3,2.1-4.3,0.1-6.5
		s-4.7-0.7-5.7,0.7S47.2,28.5,48.2,32.7c1,4.2,14.4,12.4,14.9,13.6c0.4,1.1,0.7,16.7,0.4,19.5c-0.2,2.8-0.8,28.8-1,33.1
		c-0.1,2.8,1.1,4.7,4,5c2.9,0.3,3.7-1.2,4.3-4.6c0.5-2.5,1.9-25,2.2-30.1c0-0.6,0.6-1.1,1.2-1.1l1.9,0c0.6,0,1.2,0.5,1.2,1.1
		c0.3,5,1.8,27.1,2.2,29.7c0.6,3.4,1.4,5.3,4.3,5c2.9-0.3,4.2-2.2,4-5c-0.2-2.8-0.7-30.2-1-33.1c-0.2-2.8,0.1-12.6-0.2-14.9"/>
	<path class="st0" d="M53.2,82.5h-6.7V72.4L25.3,93.6l21.2,21.2v-10.1h8.1c2.1,4,5.4,7.6,9.3,9.4v8H53.8L75,143.3l21.2-21.2H86.1v-8
		c3.9-2.2,7.2-5.5,9.3-9.4h8.1v10.1l21.2-21.2l-21.2-21.2v10.1h-7.3"/>
	<polygon class="st1" points="73.9,35.9 71.3,58.1 75.2,62.1 79.1,58.1 76.5,35.9 	"/>
</g>
</svg>
