<?xml version="1.0" encoding="utf-8"?>
<!-- Generator: Adobe Illustrator 19.1.0, SVG Export Plug-In . SVG Version: 6.00 Build 0)  -->
<svg version="1.1" id="Шар_1" xmlns="http://www.w3.org/2000/svg" xmlns:xlink="http://www.w3.org/1999/xlink" x="0px" y="0px"
	 viewBox="0 0 150 150" style="enable-background:new 0 0 150 150;" xml:space="preserve">
<style type="text/css">
	.st0{fill:none;stroke:#171B65;stroke-width:3;stroke-linecap:round;stroke-linejoin:round;stroke-miterlimit:10;}
	.st1{fill:none;stroke:#171B65;stroke-width:4.7025;stroke-linecap:round;stroke-linejoin:round;stroke-miterlimit:10;}
	.st2{fill:#EA5B0C;stroke:#171B65;stroke-width:3;stroke-linecap:round;stroke-linejoin:round;stroke-miterlimit:10;}
	.st3{fill:#FFFFFF;stroke:#171B65;stroke-width:4.7025;stroke-linecap:round;stroke-linejoin:round;stroke-miterlimit:10;}
	.st4{fill:#00B5DA;stroke:#171B65;stroke-width:3;stroke-linecap:round;stroke-linejoin:round;stroke-miterlimit:10;}
	.st5{fill:#B4C700;stroke:#171B65;stroke-width:3;stroke-linecap:round;stroke-linejoin:round;stroke-miterlimit:10;}
</style>
<g>
	<path class="st0" d="M67.6,99.9v3.7c0,3.5-2.8,6.4-6.4,6.4h-1.7c-3.5,0-6.4-2.8-6.4-6.4v-3.7"/>
	<path class="st1" d="M88.4,126H32.3c-5.6,0-10.2-4.6-10.2-10.2v-31c0-4.6,3.7-8.3,8.3-8.3h68.3v39.3C98.7,121.4,94.1,126,88.4,126z
		"/>
	<path class="st0" d="M22.1,91.3c12.7,5,21.7,8,38.3,8c16.7,0,25.6-2.9,38.3-8"/>
	<path class="st1" d="M42.6,29.4l-3.9-3.9c-2-2-5.4-2-7.4,0L24.9,32c-2,2-2,5.4,0,7.4l20,20l13.7,4.6c3,1,5.9-1.8,4.8-4.8l-4.6-13.7
		L43.4,30l-9.4,9.4"/>
	<path class="st2" d="M54.6,62.6l5.2,1.8c2.5,0.9,4.9-1.6,4.1-4.1l-1.7-5.2C60.1,57.2,57.4,59.8,54.6,62.6z"/>
	<line class="st2" x1="41.7" y1="38" x2="52.9" y2="49.2"/>
	<line class="st2" x1="40.7" y1="46.3" x2="48.1" y2="53.7"/>
	<polygon class="st3" points="112.4,40.5 127.9,56 127.9,107.3 76.3,107.3 76.3,40.5 	"/>
	<polygon class="st4" points="112.3,40.4 128,56.1 112.3,56.1 	"/>
	<rect x="87.3" y="53.8" class="st5" width="12.5" height="12.5"/>
	<rect x="87.3" y="77.1" class="st2" width="12.5" height="12.5"/>
	<polyline class="st0" points="91.3,58 94.5,61.2 101.7,50.8 	"/>
	<line class="st0" x1="109.7" y1="76" x2="109.7" y2="82.4"/>
	<line class="st0" x1="109.7" y1="88" x2="109.7" y2="88"/>
</g>
</svg>
